<?xml version="1.0" encoding="utf-8"?>
<!-- Generator: Adobe Illustrator 17.1.0, SVG Export Plug-In . SVG Version: 6.00 Build 0)  -->
<!DOCTYPE svg PUBLIC "-//W3C//DTD SVG 1.1//EN" "http://www.w3.org/Graphics/SVG/1.1/DTD/svg11.dtd">
<svg version="1.1" id="Capa_1" xmlns="http://www.w3.org/2000/svg" xmlns:xlink="http://www.w3.org/1999/xlink" x="0px" y="0px"
	 viewBox="0 0 640 480" enable-background="new 0 0 640 480" xml:space="preserve">
<g id="Layer_1">
</g>
<g id="Layer_3">
</g>
<g id="Layer_4">
	<path fill="#FFFFFF" d="M283.3,102.2L283.3,102.2L283.3,102.2c12.4,0,22.6,6.8,26,16.4c3.4-2.3,7.9-3.4,11.9-3.4
		c4.5,0,8.5,1.1,11.9,3.4c3.4-9.6,13.6-16.4,26-16.4l0,0l0,0h19.8c0.6,0,0.6,0,1.1,0c-6.2-24.3-29.9-42.9-58.2-42.9
		c-28.2,0-52,18.1-58.2,42.9H283.3L283.3,102.2z"/>
	<path fill="#FFFFFF" d="M526.1,273.3l-92.6-135.5c-1.1-1.7-2.3-3.4-4-4.5c2.3,5.6,4,12.4,4,19.2c0,18.1-9.6,33.9-23.7,42.9
		l29.9,43.5l-40.7-14.1c-28.2-7.9-61-9-61-9c9.6-3.4,17.5-9.6,23.7-17.5c-16.4-7.9-28.2-23.7-29.4-42.9c0,0-0.6-14.1-11.3-14.1
		c-9.6,0-10.7,9.6-11.3,13.6c0,19.8-11.3,34.4-28.2,42.4c6.2,8.5,14.7,14.7,24.3,18.1c0,0-35.6,1.1-61.6,9l-40.1,13.6l29.4-42.9
		c-14.7-9-24.3-24.8-24.3-42.9c0-6.2,1.1-11.9,3.4-17.5c-0.6,1.1-1.7,1.7-2.3,2.8l-92.6,135.5c-6.2,9-6.2,21.5,0.6,30.5
		c5.1,6.8,13,10.2,20.9,10.2c2.8,0,5.6-0.6,8.5-1.1l86.4-29.4v122h175.1v-122l87.5,29.4c2.8,1.1,5.6,1.1,8.5,1.1
		c7.9,0,15.8-4,20.9-10.2C531.8,294.8,532.3,282.4,526.1,273.3z"/>
</g>
<path fill="#FFFFFF" d="M259,192c-22,0-40.1-18.1-40.1-40.1s18.1-40.1,40.1-40.1s40.1,18.1,40.1,40.1S281.6,192,259,192L259,192z"/>
<path d="M259,132.7c-10.7,0-19.2,8.5-19.2,19.2s8.5,19.2,19.2,19.2c10.7,0,19.2-8.5,19.2-19.2C278.8,141.2,269.7,132.7,259,132.7
	L259,132.7z"/>
<path fill="#FFFFFF" d="M382.7,192c-22,0-40.1-18.1-40.1-40.1s18.1-40.1,40.1-40.1s40.1,18.1,40.1,40.1S404.7,192,382.7,192
	L382.7,192z"/>
<path d="M382.7,132.7c-10.7,0-19.2,8.5-19.2,19.2s8.5,19.2,19.2,19.2c10.7,0,19.2-8.5,19.2-19.2S393.4,132.7,382.7,132.7
	L382.7,132.7z"/>
<text transform="matrix(1 0 0 1 255.5992 361.2156)" font-family="'Noteworthy-Light'" font-size="143.577">S</text>
<text transform="matrix(1 0 0 1 321.562 380.8438)" font-family="'Noteworthy-Light'" font-size="110.2306">P</text>
</svg>
